<?xml version="1.0" standalone="yes"?>
<svg xmlns="http://www.w3.org/2000/svg" width="695" height="609">
<path style="fill:#212121; stroke:none;" d="M387 186C384.381 182.123 378.957 172.756 373.804 172.364C361.233 171.408 351.617 184.606 341.53 167.989C328.812 147.038 347.165 111.511 372 130C375.647 127.199 384.283 120.277 383.762 115.125C383.006 107.657 366.879 103.844 361 103.207C345.977 101.578 329.696 108.486 321.129 121C300.33 151.379 316.619 199.7 357 198.913C368.961 198.68 377.681 192.636 387 186M273 105C273 124.518 275.997 146.799 272.504 166C270.121 179.1 258.323 179.694 251 170L235 180C243.958 203.168 279.797 205.464 292.224 184C303.873 163.882 297 127.631 297 105L273 105M438 105.495C377.546 116.256 393.554 210.78 454 200.372C462.322 198.939 470.241 196.534 476.997 191.287C516.183 160.85 486.061 96.94 438 105.495M65 127C82.716 137.34 101.97 144.587 119 156.194C145.313 174.129 171.537 203.52 188.997 230C203.856 252.536 213.839 276.941 225.752 301C232.397 314.419 237.941 329.216 251 337.895C279.207 356.64 289.356 327.512 284.116 304C275.866 266.985 251.474 232.483 225 206C192.961 173.951 151.382 146.807 108 132.745C100.212 130.221 69.2412 117.889 65 127M342 326C353.385 330.041 375.612 318.825 387 315.575C435.15 301.831 478.007 281.95 514 246C527.09 232.925 559.292 197.744 534.664 179.841C517.539 167.392 497.095 191.487 488.119 203C466.395 230.864 446.164 258.604 418 280.567C394.437 298.941 367.137 310.292 342 326M0 247C22.3092 253.418 46.6462 255.179 68.0594 264.484C125.612 289.494 170.264 334.897 207.488 384C218.546 398.586 243.949 422.255 262.653 404.477C270.288 397.22 268.06 385.734 264.807 377C257.578 357.592 244.524 340.118 229.804 325.695C183.294 280.128 125.427 255.516 61.814 245.928C47.3423 243.747 33.6545 242.951 19 243.001C12.8871 243.022 4.64399 242.666 0 247M695 605C694.989 590.661 683.555 580.988 675.377 570C665.173 556.29 657.007 540.291 651.767 524C642.909 496.464 632.97 468.986 630.196 440C627.493 411.771 631.429 383.168 628.803 355C627.218 337.992 617.433 310.97 595 317.648C585.997 320.328 581.47 330.797 579.052 339C573.045 359.382 572.564 381.038 575.432 402C583.58 461.533 608.641 515.487 647.722 561C661.564 577.12 675.758 595.046 695 605M410 321.493C347.681 332.244 364.285 427.981 426 416.908C487.061 405.952 470.77 311.008 410 321.493M437 609C443.563 606.402 441.777 595.881 442.059 590C442.915 572.173 445.525 554.183 450.44 537C468.07 475.361 507.308 431.608 548.793 385C559.216 373.29 574.502 346.652 559.622 332.451C550.421 323.67 538.553 327.996 529 333.44C509.514 344.544 494.344 360.738 481.592 379C444.266 432.456 426.95 499.044 430.059 564C430.798 579.42 434.814 593.855 437 609M328 404.558C301.075 410.223 279.298 441.284 260 458.896C233.537 483.047 201.727 499.498 168 510.757C165.056 511.74 137.899 521.655 149.102 523.784C160.997 526.045 177.005 520.471 189 519.055C240.401 512.988 296.347 493.134 333.804 455.803C341.053 448.577 349.068 439.255 351.422 429C355.19 412.584 344.593 401.067 328 404.558z"/>
</svg>
